<svg viewBox="0 0 224 88" width="70px" height="28px" xmlns="http://www.w3.org/2000/svg">
    <path style="fill: currentColor; stroke: none;" d="M 121.5 60.1 L 110.1 27.7 L 117.7 27.7 L 125.8 54.6 L 126.7 54.6 L 134.9 27.7 L 142.2 27.7 L 130.8 60.1 L 121.5 60.1 Z M 159.2 60.9 C 156.1 60.9 153.3 60.2 150.9 58.9 C 148.5 57.6 146.6 55.7 145.2 53.1 C 143.9 50.6 143.2 47.4 143.2 43.8 C 143.2 40 143.9 36.8 145.3 34.3 C 146.7 31.8 148.6 30 151 28.7 C 153.4 27.5 156.1 26.8 159.1 26.8 C 162.2 26.8 164.9 27.5 167.4 28.8 C 169.8 30.1 171.7 32 173.1 34.5 C 174.5 37.1 175.2 40.2 175.2 44 C 175.2 47.7 174.5 50.9 173.1 53.4 C 171.7 55.9 169.8 57.8 167.4 59 C 164.9 60.3 162.2 60.9 159.2 60.9 Z M 159.4 55.5 C 162.2 55.5 164.4 54.6 166 52.6 C 167.6 50.6 168.4 47.8 168.4 44.3 C 168.4 40.6 167.5 37.7 165.9 35.6 C 164.3 33.5 161.9 32.4 158.9 32.4 C 156.2 32.4 154 33.4 152.5 35.3 C 150.9 37.2 150.1 40 150.1 43.6 C 150.1 47.4 150.9 50.3 152.6 52.4 C 154.2 54.5 156.5 55.5 159.4 55.5 Z M 180.5 60.1 L 180.5 16.1 L 187.2 16.1 L 187.2 60.1 L 180.5 60.1 Z M 205 60.9 C 197.5 60.9 193.9 55.9 193.9 45.8 L 193.9 27.7 L 200.7 27.7 L 200.7 45 C 200.7 48.4 201.2 50.9 202.2 52.6 C 203.3 54.3 204.9 55.1 207.1 55.1 C 208.8 55.1 210.2 54.6 211.4 53.5 C 212.6 52.4 213.5 50.9 214.3 49 C 215 47.1 215.4 45 215.6 42.6 L 215.6 27.7 L 222.4 27.7 L 222.4 46.6 L 222.4 60.1 L 216.6 60.1 L 216.9 49.8 L 215.9 49.8 C 215.1 53.7 213.8 56.5 212 58.3 C 210.2 60 207.8 60.9 205 60.9 Z"></path>
    <path style="fill: none; stroke-linecap: round; stroke: currentColor; stroke-width: 3px;" d="M 9 27.7 C 21.5 22.3 34.5 18.9 59.8 22 M 59.8 22 C 63.6 39.5 61.3 63.3 58.3 78.1 M 59.8 22 C 65.5 16.6 76.2 11.3 76.2 11.3"></path>
    <path
        style="fill: none; stroke-linecap: round; stroke: currentColor; stroke-width: 6px;"
        d="M 26.5 59.9 C 16.6 48.8 11.3 34.5 9.4 27.7 C 16.6 20.4 34.8 7.9 57.1 7.9 C 65.1 7.9 70.5 8.7 73.1 9.4 C 73.5 9.4 73.5 9.4 73.9 9.4 C 74.3 9.4 74.3 9.4 74.6 9.4 C 75.8 9.8 76.2 9.8 76.5 10.2 C 76.9 10.2 77.7 10.9 78.1 14 C 79.2 20.1 81.1 34.5 75.4 50.7 C 71.2 62.9 62.9 73.5 58.3 78.1 C 50.7 76.2 36.4 70.5 26.5 59.9 Z"></path>
</svg>
